<?xml version="1.0" standalone="no"?>
<!DOCTYPE svg PUBLIC "-//W3C//DTD SVG 20010904//EN"
 "http://www.w3.org/TR/2001/REC-SVG-20010904/DTD/svg10.dtd">
<svg version="1.0" xmlns="http://www.w3.org/2000/svg"
 width="512.000000pt" height="512.000000pt" viewBox="0 0 512.000000 512.000000"
 preserveAspectRatio="xMidYMid meet">
<metadata>
Created by potrace 1.14, written by Peter Selinger 2001-2017
</metadata>
<g transform="translate(0.000000,512.000000) scale(0.100000,-0.100000)"
fill="#000000" stroke="none">
<path d="M1860 5105 c-41 -7 -113 -22 -160 -34 -90 -24 -277 -97 -286 -113 -4
-6 28 -45 71 -88 l78 -78 -89 -27 c-126 -37 -217 -72 -308 -117 -75 -38 -81
-39 -145 -32 -36 4 -77 7 -91 5 -138 -13 -254 -132 -266 -274 -4 -47 -9 -56
-77 -126 -40 -42 -91 -98 -112 -126 -22 -27 -48 -59 -58 -70 -43 -48 -210
-310 -272 -427 -64 -122 -66 -128 -43 -129 12 0 87 0 165 1 l142 1 -26 -48
c-159 -295 -245 -539 -312 -883 -11 -58 -23 -118 -25 -135 -7 -43 -24 -172
-30 -223 -9 -71 -18 -282 -13 -282 3 0 58 18 123 40 65 22 119 40 121 40 2 0
3 -30 3 -68 0 -211 71 -585 154 -816 57 -155 154 -346 176 -346 5 0 61 34 123
75 63 41 117 75 120 75 3 0 32 -37 64 -83 104 -148 236 -290 383 -413 82 -68
202 -154 216 -154 3 0 42 36 85 79 l79 80 107 -72 c266 -178 669 -343 811
-332 179 14 533 161 780 325 l123 81 80 -81 81 -80 37 22 c182 110 459 384
594 588 l31 47 119 -79 c65 -44 124 -77 131 -75 17 7 128 227 164 327 54 149
97 319 127 497 13 83 35 294 35 345 0 32 2 58 4 58 2 0 46 -14 97 -31 52 -17
106 -35 122 -40 l27 -8 -5 106 c-16 317 -86 691 -184 975 -53 155 -91 243
-162 375 l-60 113 165 0 164 0 -52 103 c-127 247 -269 448 -460 652 -57 61
-72 87 -67 118 3 20 -25 106 -45 138 -68 109 -217 166 -339 131 -26 -8 -45 -2
-130 39 -90 43 -235 96 -352 128 l-42 11 81 81 c50 48 78 83 72 89 -16 16
-216 91 -298 112 -143 35 -218 44 -361 43 -120 -2 -153 -6 -228 -29 -48 -14
-114 -39 -147 -56 -83 -42 -122 -44 -198 -9 -34 15 -66 29 -70 29 -4 1 -12 6
-17 10 -6 5 -44 18 -85 30 -93 27 -325 35 -440 15z"/>
</g>
</svg>
